<svg xmlns="http://www.w3.org/2000/svg" version="1.1" xmlns:xlink="http://www.w3.org/1999/xlink" width="512" height="512" x="0" y="0" viewBox="0 0 24 24" style="enable-background:new 0 0 512 512" xml:space="preserve" class=""><g><path fill="#f1b01b" d="M22 12c0 5.5-4.5 10-10 10-2.8 0-5.3-1.1-7.1-2.9S2 14.8 2 12C2 6.5 6.5 2 12 2c2.8 0 5.3 1.1 7.1 2.9S22 9.2 22 12z" opacity="1" data-original="#f1b01b" class=""/><path fill="#ffffff" d="M12 9c.3 0 .5.1.7.3l3 3c.4.4.4 1 0 1.4s-1 .4-1.4 0L12 11.4l-2.3 2.3c-.4.4-1 .4-1.4 0s-.4-1 0-1.4l3-3c.2-.2.4-.3.7-.3z" opacity="1" data-original="#ffffff"/><path d="M22 12c0 5.5-4.5 10-10 10-2.8 0-5.3-1.1-7.1-2.9l7.4-7.4 1.4-1.4 5.4-5.4C20.9 6.7 22 9.2 22 12z" opacity="1" fill="#00000010" data-original="#00000010" class=""/></g></svg>