<svg xmlns="http://www.w3.org/2000/svg">
<symbol id="icon-phone" viewBox="0 0 473.806 473.806">
  <path d="M374.456 293.506c-9.7-10.1-21.4-15.5-33.8-15.5-12.3 0-24.1 5.3-34.2 15.4l-31.6 31.5c-2.6-1.4-5.2-2.7-7.7-4-3.6-1.8-7-3.5-9.9-5.3-29.6-18.8-56.5-43.3-82.3-75-12.5-15.8-20.9-29.1-27-42.6 8.2-7.5 15.8-15.3 23.2-22.8 2.8-2.8 5.6-5.7 8.4-8.5 21-21 21-48.2 0-69.2l-27.3-27.3c-3.1-3.1-6.3-6.3-9.3-9.5-6-6.2-12.3-12.6-18.8-18.6-9.7-9.6-21.3-14.7-33.5-14.7s-24 5.1-34 14.7l-.2.2-34 34.3c-12.8 12.8-20.1 28.4-21.7 46.5-2.4 29.2 6.2 56.4 12.8 74.2 16.2 43.7 40.4 84.2 76.5 127.6 43.8 52.3 96.5 93.6 156.7 122.7 23 10.9 53.7 23.8 88 26 2.1.1 4.3.2 6.3.2 23.1 0 42.5-8.3 57.7-24.8.1-.2.3-.3.4-.5 5.2-6.3 11.2-12 17.5-18.1 4.3-4.1 8.7-8.4 13-12.9 9.9-10.3 15.1-22.3 15.1-34.6 0-12.4-5.3-24.3-15.4-34.3l-54.9-55.1zm35.8 105.3c-.1 0-.1.1 0 0-3.9 4.2-7.9 8-12.2 12.2-6.5 6.2-13.1 12.7-19.3 20-10.1 10.8-22 15.9-37.6 15.9-1.5 0-3.1 0-4.6-.1-29.7-1.9-57.3-13.5-78-23.4-56.6-27.4-106.3-66.3-147.6-115.6-34.1-41.1-56.9-79.1-72-119.9-9.3-24.9-12.7-44.3-11.2-62.6 1-11.7 5.5-21.4 13.8-29.7l34.1-34.1c4.9-4.6 10.1-7.1 15.2-7.1 6.3 0 11.4 3.8 14.6 7l.3.3c6.1 5.7 11.9 11.6 18 17.9 3.1 3.2 6.3 6.4 9.5 9.7l27.3 27.3c10.6 10.6 10.6 20.4 0 31-2.9 2.9-5.7 5.8-8.6 8.6-8.4 8.6-16.4 16.6-25.1 24.4-.2.2-.4.3-.5.5-8.6 8.6-7 17-5.2 22.7l.3.9c7.1 17.2 17.1 33.4 32.3 52.7l.1.1c27.6 34 56.7 60.5 88.8 80.8 4.1 2.6 8.3 4.7 12.3 6.7 3.6 1.8 7 3.5 9.9 5.3.4.2.8.5 1.2.7 3.4 1.7 6.6 2.5 9.9 2.5 8.3 0 13.5-5.2 15.2-6.9l34.2-34.2c3.4-3.4 8.8-7.5 15.1-7.5 6.2 0 11.3 3.9 14.4 7.3l.2.2 55.1 55.1c10.3 10.2 10.3 20.7.1 31.3zM256.056 112.706c26.2 4.4 50 16.8 69 35.8s31.3 42.8 35.8 69c1.1 6.6 6.8 11.2 13.3 11.2.8 0 1.5-.1 2.3-.2 7.4-1.2 12.3-8.2 11.1-15.6-5.4-31.7-20.4-60.6-43.3-83.5s-51.8-37.9-83.5-43.3c-7.4-1.2-14.3 3.7-15.6 11s3.5 14.4 10.9 15.6zM473.256 209.006c-8.9-52.2-33.5-99.7-71.3-137.5s-85.3-62.4-137.5-71.3c-7.3-1.3-14.2 3.7-15.5 11-1.2 7.4 3.7 14.3 11.1 15.6 46.6 7.9 89.1 30 122.9 63.7 33.8 33.8 55.8 76.3 63.7 122.9 1.1 6.6 6.8 11.2 13.3 11.2.8 0 1.5-.1 2.3-.2 7.3-1.1 12.3-8.1 11-15.4z" fill="#000000"/>
</symbol>

<symbol id="icon-cart" viewBox="0 0 64 64">
  <path d="M164.96 300.004h.024c.02 0 .04-.004.059-.004H437a15.003 15.003 0 0 0 14.422-10.879l60-210a15.003 15.003 0 0 0-2.445-13.152A15.006 15.006 0 0 0 497 60H130.367l-10.722-48.254A15.003 15.003 0 0 0 105 0H15C6.715 0 0 6.715 0 15s6.715 15 15 15h77.969c1.898 8.55 51.312 230.918 54.156 243.71C131.184 280.64 120 296.536 120 315c0 24.812 20.188 45 45 45h272c8.285 0 15-6.715 15-15s-6.715-15-15-15H165c-8.27 0-15-6.73-15-15 0-8.258 6.707-14.977 14.96-14.996zM477.114 90l-51.43 180H177.032l-40-180zM150 405c0 24.813 20.188 45 45 45s45-20.188 45-45-20.188-45-45-45-45 20.188-45 45zm45-15c8.27 0 15 6.73 15 15s-6.73 15-15 15-15-6.73-15-15 6.73-15 15-15zM362 405c0 24.813 20.188 45 45 45s45-20.188 45-45-20.188-45-45-45-45 20.188-45 45zm45-15c8.27 0 15 6.73 15 15s-6.73 15-15 15-15-6.73-15-15 6.73-15 15-15zm0 0" fill="#dadc2f"/>
</symbol>

<symbol id="icon-car" viewBox="0 0 64 64">
  <path d="M59.599 30.735a.892.892 0 0 0-.042-.107l-3.126-6.7a5.492 5.492 0 0 0-5.196-3.704h-8.028a3.706 3.706 0 0 0-3.617-4.5H10.58a1 1 0 1 0 0 2h29.01a1.71 1.71 0 0 1 1.677 1.98L38.19 38.158a1 1 0 0 0 1.972.328l2.71-16.262h8.362a3.523 3.523 0 0 1 3.36 2.5l3.124 6.695a5.303 5.303 0 0 1 .256 1.63v6.173a2.602 2.602 0 0 1-2.6 2.6H53.58a5.505 5.505 0 0 0-10.808 0h-18.89a5.503 5.503 0 0 0-10.807 0H10.38a1 1 0 1 0 0 2h2.695a5.505 5.505 0 0 0 10.808 0h18.89c1.122 5.93 9.68 5.941 10.807 0h1.795a4.604 4.604 0 0 0 4.6-4.6c-.093-1.735.285-6.9-.376-8.487zM18.479 46.32a3.5 3.5 0 0 1 0-7 3.5 3.5 0 0 1 0 7zm29.697 0a3.5 3.5 0 0 1 0-7 3.5 3.5 0 0 1 0 7zM53.191 34.023a2.366 2.366 0 0 0 2.13-3.336l-2.402-5.812a1.888 1.888 0 0 0-1.7-1.052h-6.643a1 1 0 0 0-1 1v8.2a1 1 0 0 0 1 1zm-7.615-8.2h5.573l2.355 5.693a.342.342 0 0 1-.313.507h-7.615zM8.573 22.324l10.8.072a1 1 0 0 0 .013-2L8.58 20.324a1 1 0 0 0-.007 2zM17.385 25.796l-12.399-.072a1 1 0 0 0-.011 2l12.404.072a1 1 0 0 0 .006-2zM15.39 31.195l-6.81-.073a1 1 0 0 0-.011 2l6.81.073a1 1 0 0 0 .011-2z" fill="#dadc2f" opacity="1"/>
</symbol>

<symbol id="icon-package" viewBox="0 0 64 64">
  <path d="m60.447 17.105-28-14a1 1 0 0 0-.894 0l-28 14A1 1 0 0 0 3 18v28a1 1 0 0 0 .553.9l28 14a1 1 0 0 0 .894 0l28-14A1 1 0 0 0 61 46V18a1 1 0 0 0-.553-.895ZM32 30.882l-7.817-3.909L49.169 13.7l8.6 4.3Zm-15.817-7.909L41.169 9.7l5.8 2.9-24.983 13.275ZM15 24.618l6 3v7.968l-2.293-2.293A1 1 0 0 0 18 33h-3Zm17-19.5L38.972 8.6 13.986 21.875 6.236 18Zm-27 14.5 8 4V34a1 1 0 0 0 1 1h3.586l3.707 3.707A1 1 0 0 0 23 38v-9.382l8 4v25.764l-26-13Zm28 38.764V32.618l26-13v25.764Z" fill="#dadc2f" opacity="1" />
</symbol>

<symbol id="icon-offer" viewBox="0 0 429.69 429">
  <path d="m127.273 185.078-.015.274c-1.059 18.543 9.328 35.914 26.469 44.242l.175.086a31.181 31.181 0 0 1 14.121 13.582l.07.129c8.637 16.445 26.5 26.414 45.544 25.414l.289-.016a33.163 33.163 0 0 1 19.605 5.098 49.709 49.709 0 0 0 52.719 0 33.163 33.163 0 0 1 19.605-5.098l.29.016c19.011 1.007 36.898-8.97 45.554-25.442l.043-.09a31.239 31.239 0 0 1 14.164-13.609l.14-.07c17.142-8.332 27.532-25.7 26.47-44.246l-.016-.258a29.673 29.673 0 0 1 5.164-18.39c10.66-15.548 10.66-36.048.004-51.598a29.671 29.671 0 0 1-5.168-18.383l.016-.274c1.062-18.547-9.329-35.914-26.485-44.25l-.156-.078a31.153 31.153 0 0 1-14.102-13.535l-.09-.176c-8.64-16.445-26.527-26.41-45.538-25.414l-.293.016a33.14 33.14 0 0 1-19.598-5.098h-.008a49.709 49.709 0 0 0-52.719 0 33.188 33.188 0 0 1-19.605 5.094l-.29-.016c-19.015-1.008-36.898 8.969-45.534 25.41l-.067.122a31.2 31.2 0 0 1-14.136 13.601l-.165.078c-17.14 8.328-27.53 25.7-26.468 44.246l.015.258a29.654 29.654 0 0 1-5.164 18.387c-10.66 15.55-10.66 36.055 0 51.601a29.651 29.651 0 0 1 5.16 18.387zm8.008-60.902A45.74 45.74 0 0 0 143.25 95.8l-.016-.274a30.414 30.414 0 0 1 17.473-28.925l.137-.067a47.106 47.106 0 0 0 21.336-20.539l.078-.148c5.738-10.93 17.758-17.555 30.523-16.875l.281.011a49.013 49.013 0 0 0 28.993-7.535 33.623 33.623 0 0 1 35.664 0 49.124 49.124 0 0 0 28.988 7.54l.281-.016c12.828-.672 24.79 5.945 30.512 16.843l.105.2a47.1 47.1 0 0 0 21.317 20.511l.133.067c11.312 5.5 18.18 16.855 17.488 28.937l-.016.285a45.731 45.731 0 0 0 7.973 28.371 29.546 29.546 0 0 1-.008 33.426 45.78 45.78 0 0 0-7.965 28.38l.016.269c.691 12.082-6.176 23.441-17.492 28.945l-.117.055a47.158 47.158 0 0 0-21.356 20.57l-.058.117c-5.743 10.93-17.743 17.559-30.528 16.875l-.277-.015a49.104 49.104 0 0 0-29 7.539 33.626 33.626 0 0 1-35.656 0 49.026 49.026 0 0 0-26.282-7.614c-.902 0-1.808.024-2.715.075l-.28.011a32.404 32.404 0 0 1-30.536-16.89l-.082-.153a47.049 47.049 0 0 0-21.3-20.504l-.15-.074c-11.316-5.5-18.183-16.86-17.487-28.937l.015-.285a45.774 45.774 0 0 0-7.972-28.372 29.547 29.547 0 0 1 .011-33.421zm0 0M208.27 223.602c3.746 2.34 8.68 1.195 11.02-2.551l94.769-151.82a8.001 8.001 0 1 0-13.575-8.473l-94.765 151.82a7.999 7.999 0 0 0 2.55 11.024zM216.762 141.293c19.48 0 35.332-18.074 35.332-40.29S236.242 60.72 216.762 60.72s-35.328 18.07-35.328 40.285 15.847 40.289 35.328 40.289zm0-64.574c10.66 0 19.332 10.894 19.332 24.285s-8.672 24.289-19.332 24.289c-10.657 0-19.328-10.902-19.328-24.29 0-13.386 8.671-24.284 19.328-24.284zM267.684 180.8c0 22.216 15.847 40.286 35.328 40.286s35.332-18.074 35.332-40.285c0-22.207-15.848-40.285-35.328-40.285-19.485 0-35.332 18.066-35.332 40.285zm54.66 0c0 13.391-8.672 24.286-19.332 24.286-10.657 0-19.328-10.895-19.328-24.285s8.671-24.285 19.328-24.285c10.66 0 19.332 10.886 19.332 24.285zM428.652 313.645c-10.593-18.801-34.086-25.961-53.363-16.266l-62.668 29.61a51.047 51.047 0 0 0-43.516-26.848l-57.851-1.594a61.155 61.155 0 0 1-26.293-6.79l-5.887-3.05a103.833 103.833 0 0 0-96.176.102l.368-13.336a8 8 0 0 0-7.778-8.22l-63.437-1.745a7.997 7.997 0 0 0-8.215 7.777L.004 412.5a8 8 0 0 0 7.777 8.219l63.438 1.746h.222a8.007 8.007 0 0 0 7.997-7.781l.18-6.66 16.48-8.825a28.279 28.279 0 0 1 21.101-2.308l98.41 27.62c.172.052.344.09.52.13a105.358 105.358 0 0 0 21.633 2.23 106.739 106.739 0 0 0 44.59-9.73c.343-.157.675-.336.992-.54l142.687-92.3a7.996 7.996 0 0 0 2.621-10.656zM16.22 404.94l3.39-123.214 47.446 1.304L63.66 406.25zm258.922-2.097a90.674 90.674 0 0 1-55.47 6.187l-98.148-27.543a44.22 44.22 0 0 0-32.976 3.606l-8.422 4.508 2.258-81.926c26.683-17.75 60.91-19.574 89.332-4.766l5.887 3.05a77.228 77.228 0 0 0 33.214 8.58l57.852 1.593c16.25.465 30.05 12.035 33.348 27.957l-86.172-2.371a7.997 7.997 0 0 0-8.215 7.777 8 8 0 0 0 7.777 8.219l95.098 2.617h.226a8.006 8.006 0 0 0 7.993-7.781 51.049 51.049 0 0 0-.774-10.38l64.266-30.37.187-.09a24.435 24.435 0 0 1 27.641 3.867z" fill="#dadc2f"/>
</symbol>

<symbol id="icon-recycle" viewBox="0 0 612 612">
  <path d="m3.18 201.694 38.31 29.933L5.433 300.7c-18.028 31.851 12.943 62.878 32.676 73.679 19.426 10.632 49.577 11.896 77.746 11.513l50.704-82.889 38.31 20.722-66.479-123.181-135.21 1.15zM8.813 370.78l82.253 151.962c16.526 21.105 47.7 26.094 80 25.327h86.76V404.166L93.32 403.015c-25.539 1.533-58.967-3.839-84.507-32.235zM526.309 90.732l-44.752 18.995-42.933-65.022c-19.116-31.209-61.27-19.164-80.282-7.141-18.716 11.836-34.44 37.594-47.761 62.417l47.914 84.532-36.697 23.46 139.966 1.576 64.545-118.817zM375.692 13.686l-172.786-1.732c-26.471 4.221-45.948 29.067-60.936 57.691l-42.062 75.882 125.861 69.766L306.53 71.97c11.039-23.083 31.944-49.714 69.162-58.284zm7.516 586.36 5.082-48.351 77.685-6.025c36.563-1.59 46.465-44.297 45.167-66.755-1.277-22.108-16.184-48.348-31.437-72.033l-97.162.925-2.729-43.47-69.235 121.653 72.629 114.056zm140.407-94.379 85.283-150.281c9.142-25.199-3.146-54.28-20.915-81.266l-45.976-73.577L419.97 276.8l86.199 140.12c14.837 20.845 27.994 52.039 17.446 88.747z" fill="#dadc2f" opacity="1" />
</symbol>

<symbol id="icon-food-safety" viewBox="0 0 512 512">
  <path d="M309.574 68.572c5.858-5.858 15.355-5.858 21.213 0s5.858 15.355 0 21.213l-38.517 38.517c1.221.034 2.563.056 4.025.056 18.081 0 53.38-3.277 76.583-26.48 31.644-31.643 26.228-85.779 25.981-88.068A15 15 0 0 0 385.548.499C383.26.254 329.124-5.162 297.48 26.48c-25.079 25.079-26.879 64.282-26.424 80.609zM215.691 128.358c1.462 0 2.804-.022 4.025-.056L181.2 89.785c-5.858-5.858-5.858-15.355 0-21.213s15.355-5.858 21.213 0l38.517 38.517c.455-16.327-1.345-55.529-26.424-80.609C182.862-5.163 128.726.253 126.438.499a15 15 0 0 0-13.311 13.311c-.246 2.289-5.663 56.426 25.981 88.068 23.203 23.202 58.502 26.48 76.583 26.48zM373.015 278.309c3.798-.025 7.771-.06 10.121-.101 12.341-.215 17.864-12.634 17.864-24.847 0-5.864-1.317-24.999-18.268-24.999h-9.808c.015 8.527.033 20.132.033 24.922 0 5.716.032 16.838.058 25.025zM295 228.362c-13.785 0-25 11.215-25 25s11.215 25 25 25 25-11.215 25-25-11.215-25-25-25zM194 278.362c13.785 0 25-11.215 25-25s-11.215-25-25-25-25 11.215-25 25 11.215 25 25 25zM154.422 371.174h13.263l-6.601-17.492zM467 158.362H45c-24.853 0-45 20.147-45 45v212c0 24.853 20.147 45 45 45h126.157a25.005 25.005 0 0 1 16.308 6.051l41.17 35.433C236.243 508.394 245.961 512 256 512s19.757-3.606 27.364-10.154l41.171-35.433a25.009 25.009 0 0 1 16.308-6.051H467c24.853 0 45-20.147 45-45v-212c0-24.852-20.147-45-45-45zm-111.171 52.936a9.998 9.998 0 0 1 7.078-2.936h19.825c22.889 0 38.268 18.084 38.268 44.999 0 25.605-15.777 44.466-37.514 44.844-5.655.1-19.8.155-20.4.157h-.038a10.003 10.003 0 0 1-7.045-2.902 10.006 10.006 0 0 1-2.955-7.062s-.091-25.382-.091-35.114c0-7.98-.05-34.903-.05-34.903a9.997 9.997 0 0 1 2.922-7.083zM194 208.362c24.813 0 45 20.187 45 45s-20.187 45-45 45-45-20.187-45-45 20.187-45 45-45zm-103 10c0-5.522 4.477-10 10-10h28.372c5.523 0 10 4.478 10 10s-4.477 10-10 10H111v14.337h16.118c5.523 0 10 4.478 10 10s-4.477 10-10 10H111v25.663c0 5.522-4.477 10-10 10s-10-4.478-10-10zm23.978 166.62c-2.418 13.547-15.304 23.38-30.639 23.38-12.322 0-23.894-4.971-31.748-13.637-3.709-4.093-3.398-10.417.694-14.125 4.092-3.71 10.416-3.399 14.125.693 4.011 4.426 10.34 7.068 16.929 7.068 6.003 0 10.359-3.579 10.951-6.895.78-4.366-6.191-7.3-8.346-8.095-10.871-4.01-20.526-8.307-20.932-8.487a10.02 10.02 0 0 1-1.388-.756c-7.783-5.075-11.792-13.972-10.465-23.22 1.411-9.823 8.573-17.819 18.693-20.868 18.753-5.648 35.366 4.121 39.014 10.943 2.604 4.87.767 10.93-4.104 13.533-4.336 2.319-9.616 1.116-12.559-2.613-1.211-.913-7.766-5.371-16.583-2.713-3.782 1.14-4.522 3.568-4.664 4.561-.114.793-.095 2.202 1.13 3.274 2.618 1.145 10.417 4.498 18.779 7.582 18.356 6.773 22.942 20.132 21.113 30.375zm77.186 22.736c-5.167 1.95-10.937-.658-12.887-5.825l-4.045-10.719h-28.427l-4.093 10.748c-1.966 5.161-7.743 7.752-12.904 5.786-5.161-1.966-7.752-7.743-5.786-12.904l26.285-69.015.089-.225a11.545 11.545 0 0 1 10.71-7.201h.015a11.545 11.545 0 0 1 10.823 7.452l26.046 69.017c1.949 5.167-.659 10.936-5.826 12.886zm56.022-69.356h-18.372v14.337h16.118c5.523 0 10 4.478 10 10s-4.477 10-10 10h-16.118v25.663c0 5.522-4.477 10-10 10s-10-4.478-10-10v-70c0-5.522 4.477-10 10-10h28.372c5.523 0 10 4.478 10 10s-4.477 10-10 10zm58.264 15c5.523 0 10 4.478 10 10s-4.477 10-10 10h-17.32v15h19.495c5.523 0 10 4.478 10 10s-4.477 10-10 10H279.13c-5.523 0-10-4.478-10-10v-70c0-5.522 4.477-10 10-10h29.495c5.523 0 10 4.478 10 10s-4.477 10-10 10H289.13v15zm-11.45-55c-24.813 0-45-20.187-45-45s20.187-45 45-45 45 20.187 45 45-20.187 45-45 45zm82.283 40h-9.407v60c0 5.522-4.477 10-10 10s-10-4.478-10-10v-60h-9.251c-5.523 0-10-4.478-10-10s4.477-10 10-10h38.658c5.523 0 10 4.478 10 10s-4.477 10-10 10zm83.098-4.368-20.563 31.59-.081 32.802c-.014 5.515-4.488 9.976-10 9.976h-.025c-5.523-.014-9.989-4.502-9.976-10.024l.081-32.768-20.726-31.74c-3.02-4.625-1.719-10.821 2.906-13.841 4.624-3.021 10.821-1.72 13.84 2.905l13.974 21.4 13.808-21.211c3.013-4.629 9.207-5.939 13.836-2.926 4.629 3.014 5.939 9.209 2.926 13.837z" fill="#dadc2f" opacity="1"/>
</symbol>

<symbol id="icon-economy" viewBox="0 0 512 512">
  <path d="m84.28 100.53 56.353 4.931c8.253.722 15.528-5.383 16.25-13.635.722-8.253-5.383-15.528-13.635-16.25l-20.949-1.833C160.836 45.347 207.237 30 256 30c40.483 0 80.238 10.873 114.967 31.442 7.128 4.222 16.328 1.866 20.55-5.262 4.222-7.128 1.866-16.328-5.262-20.55h-.001C346.901 12.321 301.859 0 256 0c-55.574 0-108.444 17.589-152.254 50.133l1.714-19.591c.722-8.253-5.383-15.528-13.636-16.25-8.253-.722-15.528 5.383-16.25 13.635l-4.93 56.353c-.722 8.253 5.383 15.528 13.636 16.25zM91.825 355.117c-8.253-.722-15.528 5.383-16.25 13.635L73.742 389.7C45.347 351.163 30 304.763 30 256c0-40.483 10.872-80.239 31.441-114.968 4.222-7.128 1.866-16.329-5.262-20.55s-16.329-1.866-20.55 5.262C12.321 165.099 0 210.141 0 256c0 55.574 17.589 108.444 50.133 152.253l-19.592-1.714c-8.253-.722-15.528 5.383-16.25 13.636s5.383 15.528 13.636 16.25l56.354 4.93c8.253.722 15.528-5.383 16.25-13.636l4.93-56.353c.721-8.252-5.384-15.527-13.636-16.249zM427.72 411.47l-56.353-4.93c-8.253-.722-15.528 5.383-16.25 13.636-.722 8.253 5.383 15.528 13.635 16.25l20.948 1.833C351.163 466.654 304.762 482 256 482c-40.484 0-80.239-10.873-114.968-31.442-7.128-4.222-16.328-1.866-20.55 5.262-4.222 7.128-1.866 16.328 5.262 20.55h.001C165.098 499.68 210.14 512 256 512c55.574 0 108.444-17.589 152.254-50.133l-1.714 19.592c-.722 8.253 5.383 15.528 13.636 16.25 8.253.722 15.528-5.383 16.25-13.635l4.93-56.353c.722-8.253-5.383-15.529-13.636-16.251zM461.867 103.747l19.591 1.714c8.253.722 15.528-5.383 16.25-13.635.722-8.253-5.383-15.528-13.635-16.25l-56.354-4.931c-8.253-.722-15.528 5.383-16.25 13.636l-4.93 56.354c-.722 8.253 5.383 15.528 13.636 16.25 8.253.722 15.528-5.383 16.25-13.635l1.833-20.948C466.653 160.838 482 207.238 482 256c0 40.482-10.873 80.237-31.442 114.967-4.222 7.128-1.866 16.329 5.262 20.55s16.329 1.866 20.55-5.262C499.679 346.9 512 301.859 512 256c0-55.573-17.589-108.443-50.133-152.253zM301 182.456c0 5.479 2.531 10.483 6.943 13.73s9.942 4.176 15.173 2.547l66.75-20.784a156.156 156.156 0 0 0-36.067-42.104l-45.686 32.758A17.08 17.08 0 0 0 301 182.456zM321 306c0 24.813-20.187 45-45 45-2.757 0-5 2.243-5 5v54.272c66.715-6.437 121.202-55.336 136.015-119.272H336c-8.271 0-15 6.729-15 15zM411 256c0-17.701-2.991-34.714-8.479-50.572l-70.486 21.948a47.494 47.494 0 0 1-14.13 2.169c-9.854 0-19.504-3.133-27.745-9.198-12.176-8.961-19.16-22.772-19.16-37.892 0-15.127 7.339-29.42 19.632-38.235l36.287-26.019C305.655 107.214 281.541 101 256 101c-49.698 0-94.003 23.516-122.387 60H186c19.299 0 35 15.701 35 35v10c0 2.757 2.243 5 5 5 24.813 0 45 20.187 45 45s-20.187 45-45 45c-2.757 0-5 2.243-5 5 0 19.299-15.701 35-35 35h-59.548c25.142 38.19 66.696 64.655 114.548 69.272V356c0-19.299 15.701-35 35-35 8.271 0 15-6.729 15-15 0-24.813 20.187-45 45-45h74.911c.053-1.661.089-3.326.089-5z" fill="#dadc2f" opacity="1"/>
</symbol>

<symbol id="icon-phone-new" viewBox="0 0 473.806 473.806">
    <path d="M374.456 293.506c-9.7-10.1-21.4-15.5-33.8-15.5-12.3 0-24.1 5.3-34.2 15.4l-31.6 31.5c-2.6-1.4-5.2-2.7-7.7-4-3.6-1.8-7-3.5-9.9-5.3-29.6-18.8-56.5-43.3-82.3-75-12.5-15.8-20.9-29.1-27-42.6 8.2-7.5 15.8-15.3 23.2-22.8 2.8-2.8 5.6-5.7 8.4-8.5 21-21 21-48.2 0-69.2l-27.3-27.3c-3.1-3.1-6.3-6.3-9.3-9.5-6-6.2-12.3-12.6-18.8-18.6-9.7-9.6-21.3-14.7-33.5-14.7s-24 5.1-34 14.7l-.2.2-34 34.3c-12.8 12.8-20.1 28.4-21.7 46.5-2.4 29.2 6.2 56.4 12.8 74.2 16.2 43.7 40.4 84.2 76.5 127.6 43.8 52.3 96.5 93.6 156.7 122.7 23 10.9 53.7 23.8 88 26 2.1.1 4.3.2 6.3.2 23.1 0 42.5-8.3 57.7-24.8.1-.2.3-.3.4-.5 5.2-6.3 11.2-12 17.5-18.1 4.3-4.1 8.7-8.4 13-12.9 9.9-10.3 15.1-22.3 15.1-34.6 0-12.4-5.3-24.3-15.4-34.3l-54.9-55.1zm35.8 105.3c-.1 0-.1.1 0 0-3.9 4.2-7.9 8-12.2 12.2-6.5 6.2-13.1 12.7-19.3 20-10.1 10.8-22 15.9-37.6 15.9-1.5 0-3.1 0-4.6-.1-29.7-1.9-57.3-13.5-78-23.4-56.6-27.4-106.3-66.3-147.6-115.6-34.1-41.1-56.9-79.1-72-119.9-9.3-24.9-12.7-44.3-11.2-62.6 1-11.7 5.5-21.4 13.8-29.7l34.1-34.1c4.9-4.6 10.1-7.1 15.2-7.1 6.3 0 11.4 3.8 14.6 7l.3.3c6.1 5.7 11.9 11.6 18 17.9 3.1 3.2 6.3 6.4 9.5 9.7l27.3 27.3c10.6 10.6 10.6 20.4 0 31-2.9 2.9-5.7 5.8-8.6 8.6-8.4 8.6-16.4 16.6-25.1 24.4-.2.2-.4.3-.5.5-8.6 8.6-7 17-5.2 22.7l.3.9c7.1 17.2 17.1 33.4 32.3 52.7l.1.1c27.6 34 56.7 60.5 88.8 80.8 4.1 2.6 8.3 4.7 12.3 6.7 3.6 1.8 7 3.5 9.9 5.3.4.2.8.5 1.2.7 3.4 1.7 6.6 2.5 9.9 2.5 8.3 0 13.5-5.2 15.2-6.9l34.2-34.2c3.4-3.4 8.8-7.5 15.1-7.5 6.2 0 11.3 3.9 14.4 7.3l.2.2 55.1 55.1c10.3 10.2 10.3 20.7.1 31.3zM256.056 112.706c26.2 4.4 50 16.8 69 35.8s31.3 42.8 35.8 69c1.1 6.6 6.8 11.2 13.3 11.2.8 0 1.5-.1 2.3-.2 7.4-1.2 12.3-8.2 11.1-15.6-5.4-31.7-20.4-60.6-43.3-83.5s-51.8-37.9-83.5-43.3c-7.4-1.2-14.3 3.7-15.6 11s3.5 14.4 10.9 15.6zM473.256 209.006c-8.9-52.2-33.5-99.7-71.3-137.5s-85.3-62.4-137.5-71.3c-7.3-1.3-14.2 3.7-15.5 11-1.2 7.4 3.7 14.3 11.1 15.6 46.6 7.9 89.1 30 122.9 63.7 33.8 33.8 55.8 76.3 63.7 122.9 1.1 6.6 6.8 11.2 13.3 11.2.8 0 1.5-.1 2.3-.2 7.3-1.1 12.3-8.1 11-15.4z" fill="#dadc2f"/>
  </symbol>
  
  <symbol id="icon-email" viewBox="0 0 512 512">
    <path d="M467 76H45C20.238 76 0 96.149 0 121v270c0 24.86 20.251 45 45 45h422c24.762 0 45-20.149 45-45V121c0-24.857-20.248-45-45-45zm-6.91 30L267.624 299.094c-5.864 5.882-17.381 5.886-23.248 0L51.91 106h408.18zM30 385.485v-258.97L159.065 256 30 385.485zM51.91 406l128.334-128.752 42.885 43.025c17.574 17.631 48.175 17.624 65.743 0l42.885-43.024L460.09 406H51.91zM482 385.485 352.935 256 482 126.515v258.97z" fill="#dadc2f" />
  </symbol>
  
 <symbol id="icon-location" viewBox="0 0 512 512">
    <g>
<path d="M256 110.062c-52.412 0-95.053 42.641-95.053 95.053s42.641 95.053 95.053 95.053 95.053-42.641 95.053-95.053-42.64-95.053-95.053-95.053zm0 150.084c-30.344 0-55.031-24.687-55.031-55.031s24.687-55.031 55.031-55.031 55.031 24.687 55.031 55.031-24.687 55.031-55.031 55.031z" fill="#dadc2f" />
<path d="M256 0C142.899 0 50.885 92.015 50.885 205.115v5.67c0 57.2 32.794 123.856 97.474 198.113 46.888 53.832 93.121 91.368 95.065 92.94L256 512l12.576-10.161c1.945-1.572 48.178-39.108 95.065-92.94 64.679-74.258 97.474-140.913 97.474-198.113v-5.67C461.115 92.015 369.101 0 256 0zm165.093 210.786c0 96.665-124.551 213.68-165.093 249.202-40.553-35.533-165.093-152.544-165.093-249.202v-5.67c0-91.032 74.061-165.093 165.093-165.093s165.093 74.061 165.093 165.093v5.67z" fill="#dadc2f" />
</g>
  </symbol>
  
  <symbol id="icon-tick" viewBox="0 0 24 24">
    <path d="M19.801 10.222A8.004 8.004 0 0 1 12 20c-4.415 0-8-3.585-8-8a8.004 8.004 0 0 1 10.634-7.556 1 1 0 1 0 .659-1.888A9.98 9.98 0 0 0 12 2C6.481 2 2 6.481 2 12s4.481 10 10 10 10-4.481 10-10c0-.763-.086-1.507-.248-2.222a1.001 1.001 0 0 0-1.951.444zM11 12.586l8.293-8.293a1 1 0 0 1 1.414 1.414l-9 9a.999.999 0 0 1-1.414 0l-3-3a1 1 0 0 1 1.414-1.414z" fill="#dadc2f" />
  </symbol>
  
  
<symbol id="icon-facebook" viewBox="0 0 100 100">
    <path d="M40.4 55.2h-9.9c-1.6 0-2.1-.6-2.1-2.1V41c0-1.6.6-2.1 2.1-2.1h9.9v-8.8c0-4 .7-7.8 2.7-11.3 2.1-3.6 5.1-6 8.9-7.4 2.5-.9 5-1.3 7.7-1.3h9.8c1.4 0 2 .6 2 2v11.4c0 1.4-.6 2-2 2-2.7 0-5.4 0-8.1.1-2.7 0-4.1 1.3-4.1 4.1-.1 3 0 5.9 0 9h11.6c1.6 0 2.2.6 2.2 2.2V53c0 1.6-.5 2.1-2.2 2.1H57.3v32.6c0 1.7-.5 2.3-2.3 2.3H42.5c-1.5 0-2.1-.6-2.1-2.1V55.2z" fill="#dadc2f" />
  </symbol>
  
  <symbol id="icon-instagram" viewBox="0 0 511 511.9">
  <path d="M510.95 150.5c-1.2-27.2-5.598-45.898-11.9-62.102-6.5-17.199-16.5-32.597-29.6-45.398-12.802-13-28.302-23.102-45.302-29.5-16.296-6.3-34.898-10.7-62.097-11.898C334.648.3 325.949 0 256.449 0s-78.199.3-105.5 1.5c-27.199 1.2-45.898 5.602-62.097 11.898-17.204 6.5-32.602 16.5-45.403 29.602-13 12.8-23.097 28.3-29.5 45.3-6.3 16.302-10.699 34.9-11.898 62.098C.75 177.801.449 186.5.449 256s.301 78.2 1.5 105.5c1.2 27.2 5.602 45.898 11.903 62.102 6.5 17.199 16.597 32.597 29.597 45.398 12.801 13 28.301 23.102 45.301 29.5 16.3 6.3 34.898 10.7 62.102 11.898 27.296 1.204 36 1.5 105.5 1.5s78.199-.296 105.5-1.5c27.199-1.199 45.898-5.597 62.097-11.898a130.934 130.934 0 0 0 74.903-74.898c6.296-16.301 10.699-34.903 11.898-62.102 1.2-27.3 1.5-36 1.5-105.5s-.102-78.2-1.3-105.5zm-46.098 209c-1.102 25-5.301 38.5-8.801 47.5-8.602 22.3-26.301 40-48.602 48.602-9 3.5-22.597 7.699-47.5 8.796-27 1.204-35.097 1.5-103.398 1.5s-76.5-.296-103.403-1.5c-25-1.097-38.5-5.296-47.5-8.796C94.551 451.5 84.45 445 76.25 436.5c-8.5-8.3-15-18.3-19.102-29.398-3.5-9-7.699-22.602-8.796-47.5-1.204-27-1.5-35.102-1.5-103.403s.296-76.5 1.5-103.398c1.097-25 5.296-38.5 8.796-47.5C61.25 94.199 67.75 84.1 76.352 75.898c8.296-8.5 18.296-15 29.398-19.097 9-3.5 22.602-7.7 47.5-8.801 27-1.2 35.102-1.5 103.398-1.5 68.403 0 76.5.3 103.403 1.5 25 1.102 38.5 5.3 47.5 8.8 11.097 4.098 21.199 10.598 29.398 19.098 8.5 8.301 15 18.301 19.102 29.403 3.5 9 7.699 22.597 8.8 47.5 1.2 27 1.5 35.097 1.5 103.398s-.3 76.301-1.5 103.301zm0 0
        M256.45 124.5c-72.598 0-131.5 58.898-131.5 131.5s58.902 131.5 131.5 131.5c72.6 0 131.5-58.898 131.5-131.5s-58.9-131.5-131.5-131.5zm0 216.8c-47.098 0-85.302-38.198-85.302-85.3s38.204-85.3 85.301-85.3c47.102 0 85.301 38.198 85.301 85.3s-38.2 85.3-85.3 85.3zM423.852 119.3c0 16.954-13.747 30.7-30.704 30.7-16.953 0-30.699-13.746-30.699-30.7 0-16.956 13.746-30.698 30.7-30.698 16.956 0 30.703 13.742 30.703 30.699zm0 0" fill="#dadc2f" />
  </symbol>  

</svg>






