<?xml version="1.0" encoding="UTF-8"?>
<!-- Generator: Adobe Illustrator 16.0.0, SVG Export Plug-In . SVG Version: 6.00 Build 0)  -->
<!DOCTYPE svg PUBLIC "-//W3C//DTD SVG 1.1//EN" "http://www.w3.org/Graphics/SVG/1.1/DTD/svg11.dtd">
<svg version="1.1" id="Layer_1" xmlns="http://www.w3.org/2000/svg" xmlns:xlink="http://www.w3.org/1999/xlink" x="0px" y="0px" width="512px" height="512px" viewBox="0 0 512 512" enable-background="new 0 0 512 512" xml:space="preserve">
<g>
	<path fill="#FFFFFF" d="M371.359,267.359l-208,208.001c-6.223,6.273-16.353,6.315-22.627,0.093   c-0.031-0.031-0.062-0.063-0.093-0.093c-6.274-6.223-6.316-16.354-0.093-22.628c0.031-0.03,0.062-0.062,0.093-0.093L337.439,256   L140.64,59.36c-6.274-6.274-6.274-16.446,0-22.72s16.446-6.274,22.72,0l208,208c6.274,6.223,6.316,16.353,0.094,22.627   C371.422,267.299,371.391,267.329,371.359,267.359z"/>
</g>
</svg>